<svg width="293" height="237" viewBox="0 0 293 237" fill="none" xmlns="http://www.w3.org/2000/svg">
<g clip-path="url(#clip0_124_384)">
<path opacity="0.18" d="M216.834 41.1826C207.89 31.1861 200.966 19.2521 190.277 11.09C173.486 -1.74733 149.321 -2.99937 129.687 5.06757C110.054 13.1345 94.7473 29.3952 84.6665 47.8073C79.364 57.4948 75.1986 68.0618 67.4283 75.9782C60.8597 82.6663 52.2265 86.9335 44.0409 91.5811C30.8552 99.0577 18.1454 108.083 9.60495 120.473C1.0645 132.863 -2.7541 149.135 2.70566 163.098C6.38716 172.52 13.8026 180.016 21.3995 186.804C30.3391 194.783 39.9481 202.276 51.037 207.01C64.9122 212.926 80.3317 214.198 95.4448 214.8C122.238 215.863 149.073 215.068 175.752 212.423C197.599 210.259 220.108 206.567 238.386 194.613C263.992 177.873 277.193 147.202 280.165 117.125C281.375 105.096 281.068 92.5955 276.342 81.4341C265.04 54.7371 234.544 60.9814 216.834 41.1826Z" fill="#90CC45"/>
<path d="M108.413 94.7826C108.413 94.7826 98.2796 93.0313 95.4409 99.9334C92.6021 106.835 95.4409 130.672 95.4409 130.672L133.248 156.972L108.413 94.7826Z" fill="#3F3D56"/>
<path d="M156.034 200.94L141.369 205.208C140.345 205.503 139.245 205.388 138.308 204.887C137.37 204.387 136.673 203.542 136.369 202.537C136.068 201.532 136.186 200.45 136.695 199.529C137.204 198.608 138.064 197.923 139.087 197.624L153.748 193.361C154.771 193.066 155.871 193.18 156.808 193.68C157.745 194.18 158.443 195.024 158.748 196.027C159.049 197.033 158.932 198.114 158.423 199.034C157.915 199.955 157.056 200.64 156.034 200.94Z" fill="#90CC45"/>
<path d="M161.805 211.584C162.657 208.013 160.402 204.439 156.768 203.602C153.135 202.765 149.498 204.98 148.646 208.551C147.793 212.121 150.048 215.695 153.682 216.532C157.316 217.37 160.952 215.154 161.805 211.584Z" fill="#25233A"/>
<path d="M154.006 213.992C155.872 213.992 157.385 212.505 157.385 210.672C157.385 208.838 155.872 207.351 154.006 207.351C152.14 207.351 150.627 208.838 150.627 210.672C150.627 212.505 152.14 213.992 154.006 213.992Z" fill="#3F3D56"/>
<path d="M132.911 208.201C135.55 205.608 135.55 201.403 132.911 198.81C130.272 196.217 125.993 196.217 123.354 198.81C120.714 201.403 120.714 205.608 123.354 208.201C125.993 210.795 130.272 210.794 132.911 208.201Z" fill="#25233A"/>
<path d="M130.296 204.102C130.296 204.759 130.098 205.401 129.727 205.947C129.355 206.493 128.828 206.918 128.21 207.17C127.593 207.421 126.913 207.487 126.258 207.359C125.602 207.231 125 206.914 124.528 206.45C124.055 205.986 123.733 205.394 123.603 204.75C123.473 204.106 123.54 203.438 123.795 202.832C124.051 202.225 124.484 201.706 125.04 201.342C125.596 200.977 126.249 200.782 126.917 200.782C127.813 200.783 128.672 201.133 129.305 201.756C129.939 202.378 130.295 203.222 130.296 204.102Z" fill="url(#paint0_linear_124_384)"/>
<path d="M126.175 219.226C129.908 219.226 132.933 216.253 132.933 212.585C132.933 208.918 129.908 205.945 126.175 205.945C122.443 205.945 119.417 208.918 119.417 212.585C119.417 216.253 122.443 219.226 126.175 219.226Z" fill="#25233A"/>
<path d="M131.514 212.807C131.514 213.464 131.316 214.106 130.945 214.652C130.573 215.198 130.046 215.623 129.428 215.875C128.811 216.126 128.131 216.192 127.476 216.064C126.82 215.935 126.218 215.619 125.746 215.155C125.273 214.691 124.951 214.099 124.821 213.455C124.69 212.811 124.757 212.143 125.013 211.536C125.269 210.93 125.702 210.411 126.258 210.046C126.813 209.682 127.467 209.487 128.135 209.487C129.031 209.487 129.891 209.837 130.524 210.459C131.158 211.082 131.514 211.927 131.514 212.807Z" fill="#3F3D56"/>
<path d="M156.583 207.454L125.675 201.325C124.63 201.115 123.713 200.506 123.123 199.633C122.534 198.76 122.321 197.693 122.53 196.665C122.744 195.64 123.362 194.739 124.25 194.16C125.138 193.581 126.223 193.37 127.268 193.575L158.176 199.7C159.22 199.91 160.138 200.519 160.727 201.392C161.317 202.265 161.53 203.332 161.321 204.36C161.108 205.386 160.49 206.288 159.602 206.868C158.714 207.448 157.628 207.659 156.583 207.454Z" fill="#90CC45"/>
<path d="M137.53 159.742H145.97V194.668C145.97 195.768 145.525 196.822 144.734 197.599C143.943 198.376 142.87 198.813 141.752 198.813C140.633 198.813 139.56 198.376 138.769 197.599C137.978 196.822 137.534 195.768 137.534 194.668V159.742H137.53Z" fill="#90CC45"/>
<path d="M140.558 205.16L125.897 209.435C124.873 209.732 123.771 209.617 122.833 209.116C121.895 208.616 121.197 207.77 120.893 206.765C120.592 205.759 120.71 204.678 121.219 203.757C121.728 202.836 122.588 202.151 123.61 201.852L138.272 197.588C139.295 197.293 140.395 197.408 141.332 197.908C142.269 198.407 142.967 199.251 143.272 200.255C143.57 201.259 143.452 202.338 142.944 203.257C142.435 204.176 141.578 204.86 140.558 205.16Z" fill="#90CC45"/>
<path d="M142.986 204.736L141.373 205.208C140.892 205.348 140.389 205.397 139.889 205.354L140.562 205.16C141.031 205.025 141.469 204.806 141.857 204.514L142.986 204.736Z" fill="url(#paint1_linear_124_384)"/>
<path d="M158.917 197.153C158.916 198.063 158.594 198.945 158.006 199.649L145.183 197.101C145.506 196.669 145.739 196.179 145.869 195.659L153.768 193.361C154.367 193.191 154.998 193.16 155.612 193.271C156.225 193.381 156.804 193.63 157.303 193.997C157.802 194.365 158.208 194.841 158.488 195.389C158.768 195.936 158.915 196.54 158.917 197.153Z" fill="url(#paint2_linear_124_384)"/>
<path opacity="0.31" d="M137.639 195.611C137.566 195.302 137.529 194.986 137.53 194.668V159.742H140.462V197.382C140.433 197.567 140.443 197.756 140.49 197.937C140.046 197.749 139.57 197.645 139.087 197.632C138.746 197.609 138.403 197.609 138.062 197.632L138.272 197.573C138.401 197.549 137.808 196.325 137.639 195.611Z" fill="url(#paint3_linear_124_384)"/>
<path opacity="0.31" d="M159.297 207.026C158.708 207.346 158.046 207.514 157.373 207.514C157.102 207.513 156.832 207.486 156.567 207.434L142.97 204.736L141.837 204.514C141.449 204.806 141.011 205.025 140.542 205.16L139.869 205.354L125.897 209.435C124.873 209.732 123.771 209.617 122.833 209.116C121.895 208.616 121.197 207.77 120.893 206.765C121.481 207.3 122.24 207.617 123.039 207.662C123.839 207.707 124.63 207.476 125.276 207.01C126.982 205.85 133.772 204.106 137.619 203.179C138.508 202.97 139.317 202.511 139.947 201.859C140.577 201.207 141.001 200.39 141.167 199.506C141.167 199.395 141.204 199.292 141.216 199.189C141.857 199.871 143.034 200.635 145.163 201.285C150.405 202.87 158.918 203.92 158.918 203.92C158.918 203.92 160.454 205.402 159.297 207.026Z" fill="url(#paint4_linear_124_384)"/>
<path d="M160.756 205.695C160.492 206.104 160.151 206.461 159.752 206.745C160.022 206.472 160.369 206.107 160.756 205.695Z" fill="url(#paint5_linear_124_384)"/>
<path d="M137.639 195.611C137.805 196.314 138.155 196.961 138.655 197.489C138.53 197.513 138.401 197.545 138.272 197.581L125.562 201.277C124.617 201.041 123.791 200.477 123.237 199.689C122.682 198.9 122.438 197.941 122.548 196.989C122.658 196.037 123.116 195.156 123.836 194.511C124.556 193.865 125.49 193.497 126.465 193.476C126.736 193.477 127.006 193.503 127.272 193.555L137.639 195.611Z" fill="url(#paint6_linear_124_384)"/>
<path d="M157.22 27.3745C157.22 27.3745 157.055 15.0601 147.01 16.122C136.966 17.1839 137.736 13.1068 133.445 13.5545C129.155 14.0022 124.171 18.1625 125.603 23.3014C127.034 28.4403 121.816 29.5893 118.389 33.4881C114.961 37.3869 119.195 40.5764 124.969 44.388C130.744 48.1996 124.611 47.213 128.034 53.2394C131.457 59.2659 143.046 51.5674 143.046 51.5674L157.22 27.3745Z" fill="#7A5CB7"/>
<path d="M75.2874 233.41L82.4125 233.648V177.738C82.4125 177.738 82.7714 163.28 96.6587 161.83C110.546 160.38 236.491 142.467 236.491 142.467C236.491 142.467 241.483 141.948 244.35 151.342C247.217 160.737 250.024 197.735 250.024 197.735L288.69 202.846C288.69 202.846 289.71 137.526 275.75 133.925C261.79 130.323 79.227 148.692 79.227 148.692C79.227 148.692 65.6865 218.081 75.2874 233.41Z" fill="#90CC45"/>
<path d="M75.2874 233.41L82.4125 233.648V177.738C82.4125 177.738 82.7714 163.28 96.6587 161.83C110.546 160.38 236.491 142.467 236.491 142.467C236.491 142.467 241.483 141.948 244.35 151.342C247.217 160.737 250.024 197.735 250.024 197.735L288.69 202.846C288.69 202.846 289.71 137.526 275.75 133.925C261.79 130.323 79.227 148.692 79.227 148.692C79.227 148.692 65.6865 218.081 75.2874 233.41Z" fill="url(#paint7_linear_124_384)"/>
<path d="M37.6901 155.55C37.6901 155.55 41.1821 136.563 65.7429 131.587L239.096 112.069C239.096 112.069 256.116 111.376 263.903 116.008C271.689 120.64 282.802 124.479 287.359 145.439C291.915 166.398 293.004 202.204 293.004 202.204L288.698 202.846C288.698 202.846 282.423 138.025 275.758 133.925C269.092 129.824 88.8763 155.003 88.8763 155.003C88.8763 155.003 76.3761 157.448 75.2874 175.65C74.1986 193.852 75.2874 233.41 75.2874 233.41L37.6901 218.493V155.55Z" fill="#7A5CB7"/>
<path opacity="0.19" d="M216.059 119.376C207.088 118.227 198.043 117.395 189.003 117.731C182.208 117.993 175.458 118.92 168.72 119.843L109.296 128.009C108.288 128.148 107.139 128.374 106.635 129.245C105.667 130.909 107.941 132.55 109.784 133.184C129.542 139.991 150.651 146.885 170.99 142.031C180.289 139.812 188.926 135.204 198.358 133.604C207.789 132.003 217.471 133.477 226.882 131.967C235.729 130.549 244.153 126.519 253.12 126.48C255.87 126.48 258.701 126.828 261.31 125.973C263.919 125.117 266.225 122.502 265.504 119.895C257.084 119.605 247.632 118.076 239.374 119.736C231.201 121.377 224.245 119.376 216.059 119.376Z" fill="url(#paint8_linear_124_384)"/>
<path d="M162.321 129.329L162.668 130.632C162.668 130.632 172.934 136.904 172.869 137.106C172.805 137.308 215.455 127.094 215.455 127.094L216.447 124.162L162.321 129.329Z" fill="url(#paint9_linear_124_384)"/>
<path d="M163.281 129.329L200.801 121.02L216.443 124.162L173.817 134.697L163.281 129.329Z" fill="url(#paint10_linear_124_384)"/>
<path d="M151.47 135.91L160.377 136.203C160.377 136.203 162.639 136.334 163.224 134.646C163.809 132.958 159.615 129.396 159.143 129.329C158.672 129.261 146.97 132.32 148.659 135.379L151.47 135.91Z" fill="url(#paint11_linear_124_384)"/>
<path d="M48.5127 222.114L44.178 235.047C31.6052 239.433 20.9156 235.047 20.9156 235.047L17.8066 221.492C17.8066 221.492 33.4883 226.591 48.5127 222.114Z" fill="#90CC45"/>
<path d="M48.5127 222.114L44.178 235.047C31.6052 239.433 20.9156 235.047 20.9156 235.047L17.8066 221.492C17.8066 221.492 33.4883 226.591 48.5127 222.114Z" fill="url(#paint12_linear_124_384)"/>
<path d="M53.4281 210.073L52.037 220.3L48.5127 222.114C33.5004 226.587 17.8067 221.492 17.8067 221.492L15.101 219.511L13.8389 210.073H53.4281Z" fill="#90CC45"/>
<path d="M53.4281 210.073L52.037 220.3L48.5127 222.114C33.5004 226.587 17.8067 221.492 17.8067 221.492L15.101 219.511L13.8389 210.073H53.4281Z" fill="url(#paint13_linear_124_384)"/>
<path d="M33.6295 213.572C44.5595 213.572 53.4201 212.005 53.4201 210.073C53.4201 208.141 44.5595 206.575 33.6295 206.575C22.6994 206.575 13.8389 208.141 13.8389 210.073C13.8389 212.005 22.6994 213.572 33.6295 213.572Z" fill="#90CC45"/>
<path d="M33.6295 213.572C44.5595 213.572 53.4201 212.005 53.4201 210.073C53.4201 208.141 44.5595 206.575 33.6295 206.575C22.6994 206.575 13.8389 208.141 13.8389 210.073C13.8389 212.005 22.6994 213.572 33.6295 213.572Z" fill="url(#paint14_linear_124_384)"/>
<path d="M24.2141 132.011C22.2705 131.108 20.1818 130.426 18.5003 129.107C15.1132 126.424 14.2543 121.804 13.1938 117.66C12.1333 113.516 10.0849 108.943 5.89935 107.755C4.33481 107.315 2.50011 107.489 1.31058 108.583C0.0565266 109.744 -0.197509 111.645 0.145238 113.306C0.487984 114.966 1.32267 116.475 1.96784 118.06C3.47423 121.741 3.93282 125.756 3.29448 129.673C2.76624 132.887 1.50413 136.143 2.31462 139.293C3.68964 144.638 10.5405 147.772 10.7301 153.28C10.8591 156.996 7.74615 160.435 8.45181 164.092C8.97197 166.799 11.5083 168.91 11.6454 171.66C11.7986 174.778 8.79858 177.417 8.94375 180.535C9.08891 183.654 12.2583 185.75 14.3269 188.186C16.0611 190.246 17.0922 192.79 17.2745 195.457C17.3834 197.121 17.1656 198.845 17.7181 200.421C18.1213 201.574 18.9278 202.553 19.5528 203.591C20.2423 204.712 20.7625 205.925 21.5931 206.963C22.6374 208.256 24.0526 209.212 25.6557 209.707C27.2588 210.201 28.976 210.211 30.5852 209.736C31.2263 205.592 30.6658 201.364 30.8432 197.176C31.1941 189.062 34.3191 180.884 32.3191 173.007C31.5852 170.119 30.1739 167.377 29.9239 164.413C29.7021 161.767 30.4199 159.144 30.9199 156.533C31.9521 151.14 31.936 145.565 31.5126 140.114C31.1779 135.803 28.0811 133.81 24.2141 132.011Z" fill="#90CC45"/>
<path d="M36.5731 153.264C36.5409 156.881 37.3796 160.622 36.2021 164.057C35.311 166.66 33.3513 168.792 32.3392 171.351C30.0045 177.259 33.1457 183.883 32.5045 190.191C32.2384 192.79 31.3311 195.286 30.7585 197.838C30.0406 201.068 29.8595 204.39 30.2222 207.676C30.1827 208.272 30.3627 208.861 30.7292 209.337C31.0957 209.813 31.6243 210.143 32.2182 210.267C34.194 211.008 36.2407 211.551 38.3272 211.888C37.6171 208.057 38.3602 204.103 40.4159 200.774C43.6135 195.623 49.8273 192.152 50.9846 186.237C51.7669 182.231 49.9443 178.166 50.0733 174.089C50.1643 171.376 51.1144 168.758 52.7911 166.601C54.2951 164.675 56.3315 163.185 57.7307 161.188C61.0936 156.374 60.0452 149.94 59.0452 144.183C58.0452 138.426 57.4645 131.801 61.4162 127.439C62.6662 126.06 64.2953 125.026 65.4284 123.552C67.9526 120.267 67.3155 115.207 64.38 112.271C61.4444 109.336 56.7186 108.523 52.7266 109.815C51.0733 110.354 49.5007 111.261 48.4765 112.656C46.4604 115.469 47.2668 119.312 48.1217 122.656C48.8676 125.561 49.4685 128.913 48.4483 131.841C47.6862 134.02 45.7547 135.2 44.1135 136.718C39.4925 140.977 36.6255 147.016 36.5731 153.264Z" fill="#90CC45"/>
<path d="M32.4078 185.318C31.8352 189.248 31.0086 193.21 30.8392 197.153C30.8392 197.287 30.8392 197.418 30.8392 197.549C30.8392 197.68 30.7908 197.739 30.7706 197.834C30.0528 201.064 29.8716 204.386 30.2344 207.672C30.2607 208.21 30.4066 208.736 30.6618 209.213C30.6416 209.38 30.6174 209.542 30.5932 209.709C28.984 210.184 27.2668 210.173 25.6637 209.679C24.0607 209.184 22.6454 208.229 21.6012 206.935C20.7947 205.897 20.2503 204.685 19.5608 203.563C18.9156 202.521 18.1293 201.543 17.7261 200.394C17.1737 198.809 17.3914 197.093 17.2826 195.429C17.1003 192.762 16.0691 190.218 14.3349 188.159C12.2664 185.722 9.09293 183.677 8.9518 180.508C8.81067 177.338 11.8067 174.751 11.6535 171.632C11.5164 168.883 8.98003 166.771 8.45986 164.065C7.7542 160.408 10.8792 156.969 10.7381 153.252C10.5486 147.745 3.6977 144.611 2.32268 139.266C1.51622 136.116 2.7743 132.859 3.30253 129.646C3.94088 125.728 3.48228 121.714 1.9759 118.032C1.33073 116.448 0.496041 114.954 0.153294 113.278C-0.189452 111.602 0.0645832 109.712 1.31863 108.555C2.52833 107.461 4.34287 107.287 5.9074 107.727C10.0929 108.916 12.1373 113.488 13.2019 117.632C14.2664 121.777 15.1212 126.397 18.5084 129.079C20.1818 130.406 22.2786 131.08 24.2222 131.983C28.0932 133.782 31.19 135.775 31.5207 140.062C31.9239 145.514 31.9602 151.089 30.9279 156.481C30.4279 159.092 29.7182 161.715 29.9319 164.362C30.1456 167.009 31.319 169.513 32.0852 172.08C32.1699 172.369 32.2545 172.663 32.3271 172.956C33.3433 177.033 33.0167 181.157 32.4078 185.318Z" fill="url(#paint15_linear_124_384)"/>
<path d="M30.6658 209.217C30.4105 208.74 30.2647 208.214 30.2383 207.676C29.8756 204.39 30.0567 201.068 30.7746 197.838C30.7948 197.743 30.819 197.648 30.8432 197.553C30.7021 201.444 31.1617 205.366 30.6658 209.217Z" fill="url(#paint16_linear_124_384)"/>
<path d="M65.4122 123.552C64.2791 125.026 62.6501 126.06 61.4001 127.439C57.4484 131.797 58.029 138.426 59.0291 144.183C60.0291 149.94 61.0775 156.374 57.7145 161.188C56.3153 163.169 54.279 164.675 52.7749 166.601C51.0982 168.758 50.1482 171.376 50.0572 174.089C49.9281 178.166 51.7507 182.231 50.9685 186.237C49.8112 192.152 43.5974 195.631 40.3998 200.774C38.3496 204.105 37.6122 208.059 38.3272 211.888C36.2461 211.55 34.2049 211.007 32.2343 210.267C31.6952 210.111 31.2063 209.82 30.815 209.423C30.7594 209.359 30.7095 209.29 30.6658 209.217C30.4105 208.74 30.2647 208.214 30.2383 207.676C29.8756 204.39 30.0567 201.068 30.7746 197.838C30.7948 197.743 30.819 197.648 30.8432 197.553C31.4158 195.1 32.2626 192.695 32.5206 190.191C32.6595 188.568 32.6271 186.935 32.4238 185.318C33.0327 181.157 33.3593 177.033 32.3311 172.984C32.2585 172.69 32.1738 172.397 32.0892 172.108C32.1658 171.854 32.2545 171.601 32.3553 171.351C33.3674 168.792 35.3271 166.66 36.2183 164.057C37.3917 160.622 36.557 156.881 36.5892 153.264C36.6417 147.016 39.5086 140.981 44.1135 136.718C45.7547 135.2 47.6862 134.02 48.4483 131.841C49.4684 128.913 48.8515 125.561 48.1216 122.656C47.2628 119.312 46.4482 115.469 48.4765 112.656C49.4846 111.261 51.0733 110.354 52.7266 109.815C56.7024 108.523 61.4484 109.336 64.3799 112.271C67.3114 115.207 67.9364 120.287 65.4122 123.552Z" fill="url(#paint17_linear_124_384)"/>
<path d="M136.885 61.3975C136.885 61.3975 119.921 63.9451 112.074 82.1195C104.227 100.294 108.308 122.843 108.445 124.804C108.582 126.765 132.49 135.379 139.324 135.379C146.159 135.379 147.583 128.73 147.583 128.73L135.506 123.734L172.2 119.617H178.789L175.16 125.541C175.16 125.541 182.321 126.27 187.107 126.436C191.894 126.603 195.144 117.406 195.68 112.834C196.216 108.262 174.539 68.1648 171.301 65.7519C168.063 63.3389 159.256 57.5859 136.885 61.3975Z" fill="#90CC45"/>
<path d="M157.22 27.3745C157.22 27.3745 160.224 29.0584 159.954 34.5064C159.684 39.9543 157.99 48.152 156.28 50.2757C154.571 52.3994 148.591 53.2315 148.591 53.2315C148.591 53.2315 151.853 60.9537 154.28 62.9467C156.708 64.9396 151.841 72.2815 147.107 69.8725C142.373 67.4635 136.885 61.3975 136.885 61.3975C136.885 61.3975 140.833 54.1111 139.498 50.2757C138.163 46.4404 133.046 32.9968 136.885 29.312C140.724 25.6272 148.938 20.3734 157.22 27.3745Z" fill="url(#paint18_linear_124_384)"/>
<path opacity="0.25" d="M130.018 87.5754L127.361 119.617L135.486 123.734L142.099 122.621L133.849 112.838L130.018 87.5754Z" fill="white"/>
<path opacity="0.25" d="M172.869 85.9589C172.869 85.9589 183.495 110.806 178.785 119.617L175.156 118.932L172.869 85.9589Z" fill="white"/>
<path d="M143.167 127.581C143.167 127.581 139.111 131.147 140.921 133.921C142.732 136.694 144.893 136.615 146.696 135.375C148.498 134.135 152.038 131.191 156.256 132.542C160.474 133.893 161.498 134.753 161.498 134.753C161.498 134.753 163.72 133.322 163.143 131.888C162.567 130.454 158.156 125.806 156.877 125.188C155.599 124.57 150.293 126.436 150.293 126.436C150.293 126.436 146.393 125.366 143.167 127.581Z" fill="url(#paint19_linear_124_384)"/>
<path d="M179.99 120.889C179.99 120.889 176.127 121.325 175.152 123.734C174.176 126.143 173.825 126.436 173.825 126.436C173.825 126.436 176.006 126.832 176.914 125.711C177.821 124.59 178.765 125.061 178.765 125.061L178.494 126.5C178.494 126.5 184.422 127.347 187.099 126.436C189.777 125.525 190.926 124.455 190.926 124.455L191.974 122.022C191.974 122.022 189.446 120.283 187.539 120.014C185.632 119.744 179.99 120.889 179.99 120.889Z" fill="url(#paint20_linear_124_384)"/>
<path d="M199.596 147.677C199.596 147.677 212.753 157.519 211.584 170.832C210.414 184.145 208.696 203.912 208.696 203.912C208.696 203.912 203.39 206.107 199.874 203.912C196.358 201.717 194.229 171.68 192.487 168.811C190.745 165.943 180.265 153.01 169.067 151.897L199.596 147.677Z" fill="#25233A"/>
<path d="M133.248 156.957C133.248 156.957 139.591 162.9 150.897 164.766C162.204 166.632 167.474 168.189 170.93 177.742C174.385 187.295 177.7 207.854 178.785 210.152C179.869 212.451 184.482 211.278 184.482 211.278C184.482 211.278 187.091 208.338 187.091 191.99C187.091 169.2 188.704 164.528 182.894 158.803C177.083 153.078 171.797 151.517 171.797 151.517L133.248 156.957Z" fill="#3F3D56"/>
<path d="M178.785 210.152L179.861 218.493H181.877C181.877 218.493 194.862 219.19 195.269 218.889C195.676 218.588 194.644 212.284 189.724 212.462C184.805 212.641 184.482 211.274 184.482 211.274L178.785 210.152Z" fill="#25233A"/>
<path d="M201.462 204.598L203.559 212.807L226.471 209.717C226.471 209.717 227.277 204.324 220.019 204.859C218.104 204.998 216.676 206.321 214.374 206.333C212.071 206.345 209.866 205.418 208.704 203.912L201.462 204.598Z" fill="#25233A"/>
<path d="M281.355 101.32L194.632 105.885C194.116 105.911 193.601 105.835 193.117 105.66C192.632 105.485 192.189 105.214 191.815 104.865C191.44 104.517 191.142 104.097 190.938 103.631C190.733 103.165 190.628 102.663 190.628 102.156V41.769C190.627 40.593 191.096 39.4637 191.934 38.6237C192.772 37.7837 193.911 37.2998 195.108 37.2759L281.476 35.5246C282.031 35.5136 282.584 35.6116 283.1 35.8129C283.617 36.0142 284.088 36.3148 284.485 36.6971C284.881 37.0794 285.197 37.5356 285.412 38.0391C285.627 38.5427 285.738 39.0833 285.738 39.6294V96.7755C285.738 97.9402 285.283 99.0604 284.468 99.9058C283.652 100.751 282.538 101.257 281.355 101.32Z" fill="#90CC45"/>
<path d="M285.355 101.32L198.632 105.885C198.117 105.911 197.602 105.834 197.118 105.659C196.634 105.483 196.192 105.213 195.817 104.864C195.443 104.515 195.145 104.095 194.941 103.63C194.738 103.164 194.632 102.663 194.632 102.156V41.769C194.631 40.5934 195.099 39.4641 195.936 38.624C196.773 37.7838 197.911 37.2998 199.108 37.2759L285.476 35.5247C286.032 35.5131 286.585 35.6107 287.102 35.8117C287.619 36.0128 288.09 36.3133 288.487 36.6957C288.885 37.078 289.2 37.5344 289.416 38.0382C289.631 38.542 289.742 39.083 289.742 39.6295V96.7756C289.741 97.9406 289.285 99.0608 288.469 99.9061C287.653 100.751 286.539 101.257 285.355 101.32Z" fill="#90CC45"/>
<path d="M285.355 101.32L198.632 105.885C198.117 105.911 197.602 105.834 197.118 105.659C196.634 105.483 196.192 105.213 195.817 104.864C195.443 104.515 195.145 104.095 194.941 103.63C194.738 103.164 194.632 102.663 194.632 102.156V41.769C194.631 40.5934 195.099 39.4641 195.936 38.624C196.773 37.7838 197.911 37.2998 199.108 37.2759L285.476 35.5247C286.032 35.5131 286.585 35.6107 287.102 35.8117C287.619 36.0128 288.09 36.3133 288.487 36.6957C288.885 37.078 289.2 37.5344 289.416 38.0382C289.631 38.542 289.742 39.083 289.742 39.6295V96.7756C289.741 97.9406 289.285 99.0608 288.469 99.9061C287.653 100.751 286.539 101.257 285.355 101.32Z" fill="url(#paint21_linear_124_384)"/>
<path d="M260.104 124.13L238.084 126.436C238.084 126.436 231.378 125.105 231.741 124.13C232.104 123.156 239.108 122.217 239.108 122.217V82.9278C239.048 82.8407 238.124 81.6837 235.596 80.9468C235.106 80.8049 234.608 80.6912 234.104 80.606C233.671 80.5443 233.249 80.4187 232.854 80.2336C231.35 79.4689 233.011 78.1376 235.346 78.0782C235.711 78.0664 236.077 78.0876 236.439 78.1416H253.374C253.374 78.1416 259.786 79.9166 260.096 88.776C260.407 97.6353 260.104 124.13 260.104 124.13Z" fill="#90CC45"/>
<path d="M242.185 124.213L238.072 126.436C238.072 126.436 231.366 125.105 231.729 124.13C232.092 123.156 239.096 122.216 239.096 122.216V82.9278C239.011 82.8367 237.983 81.7946 235.584 80.9467C234.691 80.6367 233.774 80.3982 232.842 80.2335C231.338 79.4688 232.999 78.1376 235.334 78.0781C237.322 78.3436 241.237 80.4831 241.491 81.7035C241.745 82.9238 242.185 124.213 242.185 124.213Z" fill="#90CC45"/>
<path d="M242.185 124.213L238.072 126.436C238.072 126.436 231.366 125.105 231.729 124.13C232.092 123.156 239.096 122.216 239.096 122.216V82.9278C239.011 82.8367 237.983 81.7946 235.584 80.9467C234.691 80.6367 233.774 80.3982 232.842 80.2335C231.338 79.4688 232.999 78.1376 235.334 78.0781C237.322 78.3436 241.237 80.4831 241.491 81.7035C241.745 82.9238 242.185 124.213 242.185 124.213Z" fill="url(#paint22_linear_124_384)"/>
<path d="M159.752 206.745C159.24 207.26 159.002 207.45 159.305 207.026C159.461 206.945 159.611 206.851 159.752 206.745Z" fill="url(#paint23_linear_124_384)"/>
</g>
<defs>
<linearGradient id="paint0_linear_124_384" x1="123.538" y1="204.102" x2="130.296" y2="204.102" gradientUnits="userSpaceOnUse">
<stop stop-color="#183866"/>
<stop offset="1" stop-color="#1A7FC1"/>
</linearGradient>
<linearGradient id="paint1_linear_124_384" x1="139.885" y1="204.942" x2="142.986" y2="204.942" gradientUnits="userSpaceOnUse">
<stop/>
<stop offset="0.99" stop-opacity="0"/>
</linearGradient>
<linearGradient id="paint2_linear_124_384" x1="146.8" y1="199.902" x2="165.139" y2="191.568" gradientUnits="userSpaceOnUse">
<stop/>
<stop offset="0.99" stop-opacity="0"/>
</linearGradient>
<linearGradient id="paint3_linear_124_384" x1="146.514" y1="176.363" x2="124.171" y2="183.989" gradientUnits="userSpaceOnUse">
<stop/>
<stop offset="0.99" stop-opacity="0"/>
</linearGradient>
<linearGradient id="paint4_linear_124_384" x1="158.954" y1="200.271" x2="101.688" y2="219.82" gradientUnits="userSpaceOnUse">
<stop/>
<stop offset="0.99" stop-opacity="0"/>
</linearGradient>
<linearGradient id="paint5_linear_124_384" x1="160.897" y1="206.008" x2="158.913" y2="206.687" gradientUnits="userSpaceOnUse">
<stop/>
<stop offset="0.99" stop-opacity="0"/>
</linearGradient>
<linearGradient id="paint6_linear_124_384" x1="138.905" y1="200.398" x2="121.484" y2="195.579" gradientUnits="userSpaceOnUse">
<stop/>
<stop offset="0.99" stop-opacity="0"/>
</linearGradient>
<linearGradient id="paint7_linear_124_384" x1="281" y1="178.431" x2="-31.4947" y2="193.729" gradientUnits="userSpaceOnUse">
<stop/>
<stop offset="0.99" stop-opacity="0"/>
</linearGradient>
<linearGradient id="paint8_linear_124_384" x1="106.385" y1="130.656" x2="265.617" y2="130.656" gradientUnits="userSpaceOnUse">
<stop stop-color="#183866"/>
<stop offset="1" stop-color="#1A7FC1"/>
</linearGradient>
<linearGradient id="paint9_linear_124_384" x1="189.245" y1="125.101" x2="189.856" y2="132.631" gradientUnits="userSpaceOnUse">
<stop stop-color="#68E1FD"/>
<stop offset="0.2" stop-color="#5DB4CF"/>
<stop offset="0.46" stop-color="#50819B"/>
<stop offset="0.69" stop-color="#475C76"/>
<stop offset="0.87" stop-color="#41455E"/>
<stop offset="0.99" stop-color="#3F3D56"/>
</linearGradient>
<linearGradient id="paint10_linear_124_384" x1="187.305" y1="111.998" x2="191.923" y2="139.578" gradientUnits="userSpaceOnUse">
<stop stop-color="#68E1FD"/>
<stop offset="0.2" stop-color="#5DB4CF"/>
<stop offset="0.46" stop-color="#50819B"/>
<stop offset="0.69" stop-color="#475C76"/>
<stop offset="0.87" stop-color="#41455E"/>
<stop offset="0.99" stop-color="#3F3D56"/>
</linearGradient>
<linearGradient id="paint11_linear_124_384" x1="155.946" y1="126.967" x2="155.86" y2="138.838" gradientUnits="userSpaceOnUse">
<stop stop-color="#68E1FD"/>
<stop offset="0.2" stop-color="#5DB4CF"/>
<stop offset="0.46" stop-color="#50819B"/>
<stop offset="0.69" stop-color="#475C76"/>
<stop offset="0.87" stop-color="#41455E"/>
<stop offset="0.99" stop-color="#3F3D56"/>
</linearGradient>
<linearGradient id="paint12_linear_124_384" x1="53.8717" y1="228.184" x2="26.6146" y2="229.243" gradientUnits="userSpaceOnUse">
<stop/>
<stop offset="0.99" stop-opacity="0"/>
</linearGradient>
<linearGradient id="paint13_linear_124_384" x1="58.0169" y1="215.894" x2="35.4329" y2="216.686" gradientUnits="userSpaceOnUse">
<stop/>
<stop offset="0.99" stop-opacity="0"/>
</linearGradient>
<linearGradient id="paint14_linear_124_384" x1="36.3997" y1="196.97" x2="25.3544" y2="251.123" gradientUnits="userSpaceOnUse">
<stop/>
<stop offset="0.99" stop-opacity="0"/>
</linearGradient>
<linearGradient id="paint15_linear_124_384" x1="31.2344" y1="209.606" x2="8.99621" y2="106.391" gradientUnits="userSpaceOnUse">
<stop/>
<stop offset="0.99" stop-opacity="0"/>
</linearGradient>
<linearGradient id="paint16_linear_124_384" x1="32.5206" y1="211.67" x2="29.9236" y2="199.61" gradientUnits="userSpaceOnUse">
<stop/>
<stop offset="0.99" stop-opacity="0"/>
</linearGradient>
<linearGradient id="paint17_linear_124_384" x1="29.2988" y1="217.047" x2="54.2753" y2="130.028" gradientUnits="userSpaceOnUse">
<stop/>
<stop offset="0.99" stop-opacity="0"/>
</linearGradient>
<linearGradient id="paint18_linear_124_384" x1="135.49" y1="47.1417" x2="159.974" y2="47.1417" gradientUnits="userSpaceOnUse">
<stop stop-color="#ECC4D7"/>
<stop offset="0.42" stop-color="#EFD4D1"/>
<stop offset="1" stop-color="#F2EAC9"/>
</linearGradient>
<linearGradient id="paint19_linear_124_384" x1="140.462" y1="130.632" x2="163.224" y2="130.632" gradientUnits="userSpaceOnUse">
<stop stop-color="#ECC4D7"/>
<stop offset="0.42" stop-color="#EFD4D1"/>
<stop offset="1" stop-color="#F2EAC9"/>
</linearGradient>
<linearGradient id="paint20_linear_124_384" x1="173.817" y1="123.421" x2="191.966" y2="123.421" gradientUnits="userSpaceOnUse">
<stop stop-color="#ECC4D7"/>
<stop offset="0.42" stop-color="#EFD4D1"/>
<stop offset="1" stop-color="#F2EAC9"/>
</linearGradient>
<linearGradient id="paint21_linear_124_384" x1="294.657" y1="104.926" x2="195.035" y2="37.8056" gradientUnits="userSpaceOnUse">
<stop/>
<stop offset="0.99" stop-opacity="0"/>
</linearGradient>
<linearGradient id="paint22_linear_124_384" x1="277.395" y1="140.24" x2="208.534" y2="74.8912" gradientUnits="userSpaceOnUse">
<stop/>
<stop offset="0.99" stop-opacity="0"/>
</linearGradient>
<linearGradient id="paint23_linear_124_384" x1="159.801" y1="206.892" x2="159.126" y2="207.121" gradientUnits="userSpaceOnUse">
<stop/>
<stop offset="0.99" stop-opacity="0"/>
</linearGradient>
<clipPath id="clip0_124_384">
<rect width="293" height="237" fill="white"/>
</clipPath>
</defs>
</svg>
